<?xml version="1.0" encoding="utf-8"?>
<!-- Generator: Adobe Illustrator 18.0.0, SVG Export Plug-In . SVG Version: 6.00 Build 0)  -->
<!DOCTYPE svg PUBLIC "-//W3C//DTD SVG 1.1//EN" "http://www.w3.org/Graphics/SVG/1.1/DTD/svg11.dtd">
<svg version="1.1" xmlns="http://www.w3.org/2000/svg" xmlns:xlink="http://www.w3.org/1999/xlink" x="0px" y="0px"
	 viewBox="0 0 401.5 544.6" enable-background="new 0 0 401.5 544.6" xml:space="preserve">
<g id="_x34_pt_-_Thin" display="none">
	<path display="inline" fill="none" stroke="#000000" stroke-width="4" stroke-miterlimit="10" d="M351.5,330h-240
		c-44.2,0-80,35.8-80,80s35.8,80,80,80s80-35.8,80-80h0V266.1V121.3v1.2V50"/>
	<g display="inline">
		<defs>
			<path id="SVGID_1_" d="M322.8,100C322.8,100,322.8,100,322.8,100c-0.8,0-175.7,0-262.1,0c-34.9,0-58,0-58,0S56.5,6.6,60.2,0.3
				C60.3,0.1,60.4,0,60.4,0s0.1,0,0.3,0C67.5,0,238,0,322.8,0c34.7,0,57.7,0,57.7,0s-0.1,0.1-0.2,0.3C376.7,6.6,322.8,100,322.8,100
				z"/>
		</defs>
		<clipPath id="SVGID_2_">
			<use xlink:href="#SVGID_1_"  overflow="visible"/>
		</clipPath>
		
			<line clip-path="url(#SVGID_2_)" fill="none" stroke="#000000" stroke-width="4" stroke-miterlimit="10" x1="-208.5" y1="50" x2="591.5" y2="50"/>
	</g>
	<g display="inline">
		<defs>
			<path id="SVGID_3_" d="M401.5,403.4c0,0,0-58.5,0-103.8c0-95.3,0-173,0-173s-96,166.3-99.9,173c-0.1,0-0.1,0.1-0.1,0.1l0,0
				c0,0,0,58.5,0,103.7c0,95.4,0,173.2,0,173.2l0,0L401.5,403.4L401.5,403.4z"/>
		</defs>
		<clipPath id="SVGID_4_">
			<use xlink:href="#SVGID_3_"  overflow="visible"/>
		</clipPath>
		<polyline clip-path="url(#SVGID_4_)" fill="none" stroke="#000000" stroke-width="4" stroke-miterlimit="10" points="351.5,0 
			351.5,70.6 351.5,226.7 351.5,228 351.5,384.2 351.5,545 		"/>
	</g>
</g>
<g id="_x36_pt_-_Normal" display="none">
	<path display="inline" fill="none" stroke="#000000" stroke-width="6" stroke-miterlimit="10" d="M351.5,330h-240
		c-44.2,0-80,35.8-80,80s35.8,80,80,80s80-35.8,80-80h0V266.1V121.3v1.2V50"/>
	<g display="inline">
		<defs>
			<path id="SVGID_5_" d="M322.8,100C322.8,100,322.8,100,322.8,100c-0.8,0-175.7,0-262.1,0c-34.9,0-58,0-58,0S56.5,6.6,60.2,0.3
				C60.3,0.1,60.4,0,60.4,0s0.1,0,0.3,0C67.5,0,238,0,322.8,0c34.7,0,57.7,0,57.7,0s-0.1,0.1-0.2,0.3C376.7,6.6,322.8,100,322.8,100
				z"/>
		</defs>
		<clipPath id="SVGID_6_">
			<use xlink:href="#SVGID_5_"  overflow="visible"/>
		</clipPath>
		
			<line clip-path="url(#SVGID_6_)" fill="none" stroke="#000000" stroke-width="6" stroke-miterlimit="10" x1="-208.5" y1="50" x2="591.5" y2="50"/>
	</g>
	<g display="inline">
		<defs>
			<path id="SVGID_7_" d="M401.5,403.4c0,0,0-58.5,0-103.8c0-95.3,0-173,0-173s-96,166.3-99.9,173c-0.1,0-0.1,0.1-0.1,0.1l0,0
				c0,0,0,58.5,0,103.7c0,95.4,0,173.2,0,173.2l0,0L401.5,403.4L401.5,403.4z"/>
		</defs>
		<clipPath id="SVGID_8_">
			<use xlink:href="#SVGID_7_"  overflow="visible"/>
		</clipPath>
		<polyline clip-path="url(#SVGID_8_)" fill="none" stroke="#000000" stroke-width="6" stroke-miterlimit="10" points="351.5,0 
			351.5,70.6 351.5,226.7 351.5,228 351.5,384.2 351.5,545 		"/>
	</g>
</g>
<g id="_x38_pt_-_Medium" display="none">
	<path display="inline" fill="none" stroke="#000000" stroke-width="8" stroke-miterlimit="10" d="M351.5,330h-240
		c-44.2,0-80,35.8-80,80s35.8,80,80,80s80-35.8,80-80h0V266.1V121.3v1.2V50"/>
	<g display="inline">
		<defs>
			<path id="SVGID_9_" d="M322.8,100C322.8,100,322.8,100,322.8,100c-0.8,0-175.7,0-262.1,0c-34.9,0-58,0-58,0S56.5,6.6,60.2,0.3
				C60.3,0.1,60.4,0,60.4,0s0.1,0,0.3,0C67.5,0,238,0,322.8,0c34.7,0,57.7,0,57.7,0s-0.1,0.1-0.2,0.3C376.7,6.6,322.8,100,322.8,100
				z"/>
		</defs>
		<clipPath id="SVGID_10_">
			<use xlink:href="#SVGID_9_"  overflow="visible"/>
		</clipPath>
		
			<line clip-path="url(#SVGID_10_)" fill="none" stroke="#000000" stroke-width="8" stroke-miterlimit="10" x1="-208.5" y1="50" x2="591.5" y2="50"/>
	</g>
	<g display="inline">
		<defs>
			<path id="SVGID_11_" d="M401.5,403.4c0,0,0-58.5,0-103.8c0-95.3,0-173,0-173s-96,166.3-99.9,173c-0.1,0-0.1,0.1-0.1,0.1l0,0
				c0,0,0,58.5,0,103.7c0,95.4,0,173.2,0,173.2l0,0L401.5,403.4L401.5,403.4z"/>
		</defs>
		<clipPath id="SVGID_12_">
			<use xlink:href="#SVGID_11_"  overflow="visible"/>
		</clipPath>
		<polyline clip-path="url(#SVGID_12_)" fill="none" stroke="#000000" stroke-width="8" stroke-miterlimit="10" points="351.5,0 
			351.5,70.6 351.5,226.7 351.5,228 351.5,384.2 351.5,545 		"/>
	</g>
</g>
<g id="_x31_0_pt_-_Fat" display="none">
	<path display="inline" fill="none" stroke="#000000" stroke-width="10" stroke-miterlimit="10" d="M351.5,330h-240
		c-44.2,0-80,35.8-80,80s35.8,80,80,80s80-35.8,80-80h0V266.1V121.3v1.2V50"/>
	<g display="inline">
		<defs>
			<path id="SVGID_13_" d="M322.8,100C322.8,100,322.8,100,322.8,100c-0.8,0-175.7,0-262.1,0c-34.9,0-58,0-58,0S56.5,6.6,60.2,0.3
				C60.3,0.1,60.4,0,60.4,0s0.1,0,0.3,0C67.5,0,238,0,322.8,0c34.7,0,57.7,0,57.7,0s-0.1,0.1-0.2,0.3C376.7,6.6,322.8,100,322.8,100
				z"/>
		</defs>
		<clipPath id="SVGID_14_">
			<use xlink:href="#SVGID_13_"  overflow="visible"/>
		</clipPath>
		
			<line clip-path="url(#SVGID_14_)" fill="none" stroke="#000000" stroke-width="10" stroke-miterlimit="10" x1="-208.5" y1="50" x2="591.5" y2="50"/>
	</g>
	<g display="inline">
		<defs>
			<path id="SVGID_15_" d="M401.5,403.4c0,0,0-58.5,0-103.8c0-95.3,0-173,0-173s-96,166.3-99.9,173c-0.1,0-0.1,0.1-0.1,0.1l0,0
				c0,0,0,58.5,0,103.7c0,95.4,0,173.2,0,173.2l0,0L401.5,403.4L401.5,403.4z"/>
		</defs>
		<clipPath id="SVGID_16_">
			<use xlink:href="#SVGID_15_"  overflow="visible"/>
		</clipPath>
		<polyline clip-path="url(#SVGID_16_)" fill="none" stroke="#000000" stroke-width="10" stroke-miterlimit="10" points="351.5,0 
			351.5,70.6 351.5,226.7 351.5,228 351.5,384.2 351.5,545 		"/>
	</g>
</g>
<g id="_x31_2pt_-_Extra_Fat">
	<path fill="none" stroke="#FFFFFF" stroke-width="12" stroke-miterlimit="10" d="M351.5,330h-240c-44.2,0-80,35.8-80,80
		s35.8,80,80,80s80-35.8,80-80h0V266.1V121.3v1.2V50"/>
	<g>
		<defs>
			<path id="SVGID_17_" d="M322.8,100C322.8,100,322.8,100,322.8,100c-0.8,0-175.7,0-262.1,0c-34.9,0-58,0-58,0S56.5,6.6,60.2,0.3
				C60.3,0.1,60.4,0,60.4,0s0.1,0,0.3,0C67.5,0,238,0,322.8,0c34.7,0,57.7,0,57.7,0s-0.1,0.1-0.2,0.3C376.7,6.6,322.8,100,322.8,100
				z"/>
		</defs>
		<clipPath id="SVGID_18_">
			<use xlink:href="#SVGID_17_"  overflow="visible"/>
		</clipPath>
		
			<line clip-path="url(#SVGID_18_)" fill="none" stroke="#FFFFFF" stroke-width="12" stroke-miterlimit="10" x1="-208.5" y1="50" x2="591.5" y2="50"/>
	</g>
	<g>
		<defs>
			<path id="SVGID_19_" d="M401.5,403.4c0,0,0-58.5,0-103.8c0-95.3,0-173,0-173s-96,166.3-99.9,173c-0.1,0-0.1,0.1-0.1,0.1l0,0
				c0,0,0,58.5,0,103.7c0,95.4,0,173.2,0,173.2l0,0L401.5,403.4L401.5,403.4z"/>
		</defs>
		<clipPath id="SVGID_20_">
			<use xlink:href="#SVGID_19_"  overflow="visible"/>
		</clipPath>
		<polyline clip-path="url(#SVGID_20_)" fill="none" stroke="#FFFFFF" stroke-width="12" stroke-miterlimit="10" points="351.5,0 
			351.5,70.6 351.5,226.7 351.5,228 351.5,384.2 351.5,545 		"/>
	</g>
</g>
<g id="_x33_0pt_-_Small_Icon" display="none">
	<path display="inline" fill="none" stroke="#000000" stroke-width="30" stroke-miterlimit="10" d="M351.5,330h-240
		c-44.2,0-80,35.8-80,80s35.8,80,80,80s80-35.8,80-80h0V266.1V121.3v1.2V50"/>
	<g display="inline">
		<defs>
			<path id="SVGID_21_" d="M322.8,100C322.8,100,322.8,100,322.8,100c-0.8,0-175.7,0-262.1,0c-34.9,0-58,0-58,0S56.5,6.6,60.2,0.3
				C60.3,0.1,60.4,0,60.4,0s0.1,0,0.3,0C67.5,0,238,0,322.8,0c34.7,0,57.7,0,57.7,0s-0.1,0.1-0.2,0.3C376.7,6.6,322.8,100,322.8,100
				z"/>
		</defs>
		<clipPath id="SVGID_22_">
			<use xlink:href="#SVGID_21_"  overflow="visible"/>
		</clipPath>
		
			<line clip-path="url(#SVGID_22_)" fill="none" stroke="#000000" stroke-width="30" stroke-miterlimit="10" x1="-208.5" y1="50" x2="591.5" y2="50"/>
	</g>
	<g display="inline">
		<defs>
			<path id="SVGID_23_" d="M401.5,403.4c0,0,0-58.5,0-103.8c0-95.3,0-173,0-173s-96,166.3-99.9,173c-0.1,0-0.1,0.1-0.1,0.1l0,0
				c0,0,0,58.5,0,103.7c0,95.4,0,173.2,0,173.2l0,0L401.5,403.4L401.5,403.4z"/>
		</defs>
		<clipPath id="SVGID_24_">
			<use xlink:href="#SVGID_23_"  overflow="visible"/>
		</clipPath>
		<polyline clip-path="url(#SVGID_24_)" fill="none" stroke="#000000" stroke-width="30" stroke-miterlimit="10" points="351.5,0 
			351.5,70.6 351.5,226.7 351.5,228 351.5,384.2 351.5,545 		"/>
	</g>
</g>
</svg>
